<?xml version="1.0" encoding="UTF-8" standalone="no"?>
<?plantuml 1.2026.2?><svg
   contentStyleType="text/css"
   data-diagram-type="CLASS"
   height="714px"
   preserveAspectRatio="none"
   style="width:448px;height:714px;background:#FFFFFF;"
   version="1.1"
   viewBox="0 0 448 714"
   width="448px"
   zoomAndPan="magnify"
   id="svg65"
   sodipodi:docname="domainModel.svg"
   inkscape:version="1.4.4 (dcaf3e7, 2026-05-05)"
   xmlns:inkscape="http://www.inkscape.org/namespaces/inkscape"
   xmlns:sodipodi="http://sodipodi.sourceforge.net/DTD/sodipodi-0.dtd"
   xmlns="http://www.w3.org/2000/svg"
   xmlns:svg="http://www.w3.org/2000/svg"
   xmlns:rdf="http://www.w3.org/1999/02/22-rdf-syntax-ns#"
   xmlns:cc="http://creativecommons.org/ns#"
   xmlns:dc="http://purl.org/dc/elements/1.1/">
  <sodipodi:namedview
     id="namedview65"
     pagecolor="#ffffff"
     bordercolor="#000000"
     borderopacity="0.25"
     inkscape:showpageshadow="2"
     inkscape:pageopacity="0.0"
     inkscape:pagecheckerboard="0"
     inkscape:deskcolor="#d1d1d1"
     inkscape:zoom="2.5420168"
     inkscape:cx="223.83802"
     inkscape:cy="357"
     inkscape:window-width="3840"
     inkscape:window-height="2054"
     inkscape:window-x="-11"
     inkscape:window-y="-11"
     inkscape:window-maximized="1"
     inkscape:current-layer="svg65" />
  <title
     id="title1">SlaughterHouse - Domain Model</title>
  <defs
     id="defs1" />
  <g
     id="g65">
    <g
       class="title"
       data-source-line="1"
       id="g1">
      <text
         fill="#000000"
         font-family="sans-serif"
         font-size="14"
         font-weight="bold"
         lengthAdjust="spacing"
         textLength="215.4619"
         x="109.3872"
         y="24.0752"
         id="text1">SlaughterHouse - Domain Model</text>
    </g>
    <!--class Farm-->
    <g
       class="entity"
       data-qualified-name="Farm"
       data-source-line="3"
       id="ent0002">
      <rect
         fill="#F1F1F1"
         height="99.4541"
         rx="2.5"
         ry="2.5"
         style="stroke:#181818;stroke-width:0.5;"
         width="64.6621"
         x="21"
         y="45.1514"
         id="rect1" />
      <ellipse
         cx="36"
         cy="61.1514"
         fill="#ADD1B2"
         rx="11"
         ry="11"
         style="stroke:#181818;stroke-width:1;"
         id="ellipse1" />
      <path
         d="M38.7656,57.0264 Q38.9219,56.8076 39.1094,56.6982 Q39.2969,56.5889 39.5156,56.5889 Q39.8906,56.5889 40.125,56.8545 Q40.3594,57.1045 40.3594,57.7139 L40.3594,59.167 Q40.3594,59.7764 40.125,60.042 Q39.8906,60.3076 39.5156,60.3076 Q39.1719,60.3076 38.9688,60.1045 Q38.7656,59.917 38.6563,59.4014 Q38.6094,59.042 38.4219,58.8545 Q38.0938,58.4795 37.4844,58.2607 Q36.875,58.042 36.25,58.042 Q35.4844,58.042 34.8438,58.3701 Q34.2188,58.6982 33.7188,59.4482 Q33.2344,60.1982 33.2344,61.2295 L33.2344,62.3232 Q33.2344,63.5576 34.125,64.3857 Q35.0156,65.1982 36.6094,65.1982 Q37.5469,65.1982 38.2031,64.9482 Q38.5938,64.792 39.0156,64.3545 Q39.2813,64.0889 39.4219,64.0107 Q39.5781,63.9326 39.7813,63.9326 Q40.1094,63.9326 40.3594,64.1982 Q40.625,64.4482 40.625,64.792 Q40.625,65.1357 40.2813,65.542 Q39.7813,66.1201 38.9844,66.4482 Q37.9063,66.9014 36.6094,66.9014 Q35.0938,66.9014 33.8906,66.2764 Q32.9063,65.7764 32.2188,64.7139 Q31.5313,63.6357 31.5313,62.3545 L31.5313,61.1982 Q31.5313,59.8701 32.1406,58.7295 Q32.7656,57.5732 33.8594,56.9639 Q34.9531,56.3389 36.1875,56.3389 Q36.9219,56.3389 37.5625,56.5107 Q38.2188,56.667 38.7656,57.0264 Z "
         fill="#000000"
         id="path1" />
      <text
         fill="#000000"
         font-family="sans-serif"
         font-size="14"
         lengthAdjust="spacing"
         textLength="32.6621"
         x="50"
         y="66.6509"
         id="text2">Farm</text>
      <line
         style="stroke:#181818;stroke-width:0.5;"
         x1="22"
         x2="84.6621"
         y1="77.1514"
         y2="77.1514"
         id="line2" />
      <text
         fill="#000000"
         font-family="sans-serif"
         font-size="14"
         lengthAdjust="spacing"
         textLength="39.6758"
         x="27"
         y="95.2266"
         id="text3">farmId</text>
      <text
         fill="#000000"
         font-family="sans-serif"
         font-size="14"
         lengthAdjust="spacing"
         textLength="35.0205"
         x="27"
         y="112.3779"
         id="text4">name</text>
      <text
         fill="#000000"
         font-family="sans-serif"
         font-size="14"
         lengthAdjust="spacing"
         textLength="49.8066"
         x="27"
         y="129.5293"
         id="text5">address</text>
      <line
         style="stroke:#181818;stroke-width:0.5;"
         x1="22"
         x2="84.6621"
         y1="136.6055"
         y2="136.6055"
         id="line5" />
    </g>
    <!--class Delivery-->
    <g
       class="entity"
       data-qualified-name="Delivery"
       data-source-line="10"
       id="ent0003">
      <rect
         fill="#F1F1F1"
         height="99.4541"
         rx="2.5"
         ry="2.5"
         style="stroke:#181818;stroke-width:0.5;"
         width="92.9307"
         x="7"
         y="221.1514"
         id="rect5" />
      <ellipse
         cx="26.6644"
         cy="237.1514"
         fill="#ADD1B2"
         rx="11"
         ry="11"
         style="stroke:#181818;stroke-width:1;"
         id="ellipse5" />
      <path
         d="M29.43,233.0264 Q29.5862,232.8076 29.7737,232.6982 Q29.9612,232.5889 30.18,232.5889 Q30.555,232.5889 30.7894,232.8545 Q31.0237,233.1045 31.0237,233.7139 L31.0237,235.167 Q31.0237,235.7764 30.7894,236.042 Q30.555,236.3076 30.18,236.3076 Q29.8362,236.3076 29.6331,236.1045 Q29.43,235.917 29.3206,235.4014 Q29.2737,235.042 29.0862,234.8545 Q28.7581,234.4795 28.1487,234.2607 Q27.5394,234.042 26.9144,234.042 Q26.1487,234.042 25.5081,234.3701 Q24.8831,234.6982 24.3831,235.4482 Q23.8987,236.1982 23.8987,237.2295 L23.8987,238.3232 Q23.8987,239.5576 24.7894,240.3857 Q25.68,241.1982 27.2737,241.1982 Q28.2112,241.1982 28.8675,240.9482 Q29.2581,240.792 29.68,240.3545 Q29.9456,240.0889 30.0862,240.0107 Q30.2425,239.9326 30.4456,239.9326 Q30.7737,239.9326 31.0237,240.1982 Q31.2894,240.4482 31.2894,240.792 Q31.2894,241.1357 30.9456,241.542 Q30.4456,242.1201 29.6487,242.4482 Q28.5706,242.9014 27.2737,242.9014 Q25.7581,242.9014 24.555,242.2764 Q23.5706,241.7764 22.8831,240.7139 Q22.1956,239.6357 22.1956,238.3545 L22.1956,237.1982 Q22.1956,235.8701 22.805,234.7295 Q23.43,233.5732 24.5237,232.9639 Q25.6175,232.3389 26.8519,232.3389 Q27.5862,232.3389 28.2269,232.5107 Q28.8831,232.667 29.43,233.0264 Z "
         fill="#000000"
         id="path5" />
      <text
         fill="#000000"
         font-family="sans-serif"
         font-size="14"
         lengthAdjust="spacing"
         textLength="50.5654"
         x="41.7009"
         y="242.6509"
         id="text6">Delivery</text>
      <line
         style="stroke:#181818;stroke-width:0.5;"
         x1="8"
         x2="98.9307"
         y1="253.1514"
         y2="253.1514"
         id="line6" />
      <text
         fill="#000000"
         font-family="sans-serif"
         font-size="14"
         lengthAdjust="spacing"
         textLength="59.917"
         x="13"
         y="271.2266"
         id="text7">deliveryId</text>
      <text
         fill="#000000"
         font-family="sans-serif"
         font-size="14"
         lengthAdjust="spacing"
         textLength="56.0205"
         x="13"
         y="288.3779"
         id="text8">arrivedAt</text>
      <text
         fill="#000000"
         font-family="sans-serif"
         font-size="14"
         lengthAdjust="spacing"
         textLength="80.9307"
         x="13"
         y="305.5293"
         id="text9">transportReg</text>
      <line
         style="stroke:#181818;stroke-width:0.5;"
         x1="8"
         x2="98.9307"
         y1="312.6055"
         y2="312.6055"
         id="line9" />
    </g>
    <!--class Animal-->
    <g
       class="entity"
       data-qualified-name="Animal"
       data-source-line="17"
       id="ent0004">
      <rect
         fill="#F1F1F1"
         height="116.6055"
         rx="2.5"
         ry="2.5"
         style="stroke:#181818;stroke-width:0.5;"
         width="87.4824"
         x="28"
         y="405.6514"
         id="rect9" />
      <ellipse
         cx="48.7103"
         cy="421.6514"
         fill="#ADD1B2"
         rx="11"
         ry="11"
         style="stroke:#181818;stroke-width:1;"
         id="ellipse9" />
      <path
         d="M51.4759,417.5264 Q51.6321,417.3076 51.8196,417.1982 Q52.0071,417.0889 52.2259,417.0889 Q52.6009,417.0889 52.8353,417.3545 Q53.0696,417.6045 53.0696,418.2139 L53.0696,419.667 Q53.0696,420.2764 52.8353,420.542 Q52.6009,420.8076 52.2259,420.8076 Q51.8821,420.8076 51.679,420.6045 Q51.4759,420.417 51.3665,419.9014 Q51.3196,419.542 51.1321,419.3545 Q50.804,418.9795 50.1946,418.7607 Q49.5853,418.542 48.9603,418.542 Q48.1946,418.542 47.554,418.8701 Q46.929,419.1982 46.429,419.9482 Q45.9446,420.6982 45.9446,421.7295 L45.9446,422.8232 Q45.9446,424.0576 46.8353,424.8857 Q47.7259,425.6982 49.3196,425.6982 Q50.2571,425.6982 50.9134,425.4482 Q51.304,425.292 51.7259,424.8545 Q51.9915,424.5889 52.1321,424.5107 Q52.2884,424.4326 52.4915,424.4326 Q52.8196,424.4326 53.0696,424.6982 Q53.3353,424.9482 53.3353,425.292 Q53.3353,425.6357 52.9915,426.042 Q52.4915,426.6201 51.6946,426.9482 Q50.6165,427.4014 49.3196,427.4014 Q47.804,427.4014 46.6009,426.7764 Q45.6165,426.2764 44.929,425.2139 Q44.2415,424.1357 44.2415,422.8545 L44.2415,421.6982 Q44.2415,420.3701 44.8509,419.2295 Q45.4759,418.0732 46.5696,417.4639 Q47.6634,416.8389 48.8978,416.8389 Q49.6321,416.8389 50.2728,417.0107 Q50.929,417.167 51.4759,417.5264 Z "
         fill="#000000"
         id="path9" />
      <text
         fill="#000000"
         font-family="sans-serif"
         font-size="14"
         lengthAdjust="spacing"
         textLength="42.793"
         x="63.9792"
         y="427.1509"
         id="text10">Animal</text>
      <line
         style="stroke:#181818;stroke-width:0.5;"
         x1="29"
         x2="114.4824"
         y1="437.6514"
         y2="437.6514"
         id="line10" />
      <text
         fill="#000000"
         font-family="sans-serif"
         font-size="14"
         lengthAdjust="spacing"
         textLength="52.917"
         x="34"
         y="455.7266"
         id="text11">animalId</text>
      <text
         fill="#000000"
         font-family="sans-serif"
         font-size="14"
         lengthAdjust="spacing"
         textLength="47.4688"
         x="34"
         y="472.8779"
         id="text12">species</text>
      <text
         fill="#000000"
         font-family="sans-serif"
         font-size="14"
         lengthAdjust="spacing"
         textLength="64.5791"
         x="34"
         y="490.0293"
         id="text13">liveWeight</text>
      <text
         fill="#000000"
         font-family="sans-serif"
         font-size="14"
         lengthAdjust="spacing"
         textLength="75.4824"
         x="34"
         y="507.1807"
         id="text14">registeredAt</text>
      <line
         style="stroke:#181818;stroke-width:0.5;"
         x1="29"
         x2="114.4824"
         y1="514.2568"
         y2="514.2568"
         id="line14" />
    </g>
    <!--class PartType-->
    <g
       class="entity"
       data-qualified-name="PartType"
       data-source-line="25"
       id="ent0005">
      <rect
         fill="#F1F1F1"
         height="116.6055"
         rx="2.5"
         ry="2.5"
         style="stroke:#181818;stroke-width:0.5;"
         width="110.8271"
         x="156"
         y="405.6514"
         id="rect14" />
      <ellipse
         cx="180.9123"
         cy="421.6514"
         fill="#ADD1B2"
         rx="11"
         ry="11"
         style="stroke:#181818;stroke-width:1;"
         id="ellipse14" />
      <path
         d="M183.6779,417.5264 Q183.8342,417.3076 184.0217,417.1982 Q184.2092,417.0889 184.4279,417.0889 Q184.8029,417.0889 185.0373,417.3545 Q185.2717,417.6045 185.2717,418.2139 L185.2717,419.667 Q185.2717,420.2764 185.0373,420.542 Q184.8029,420.8076 184.4279,420.8076 Q184.0842,420.8076 183.8811,420.6045 Q183.6779,420.417 183.5686,419.9014 Q183.5217,419.542 183.3342,419.3545 Q183.0061,418.9795 182.3967,418.7607 Q181.7873,418.542 181.1623,418.542 Q180.3967,418.542 179.7561,418.8701 Q179.1311,419.1982 178.6311,419.9482 Q178.1467,420.6982 178.1467,421.7295 L178.1467,422.8232 Q178.1467,424.0576 179.0373,424.8857 Q179.9279,425.6982 181.5217,425.6982 Q182.4592,425.6982 183.1154,425.4482 Q183.5061,425.292 183.9279,424.8545 Q184.1936,424.5889 184.3342,424.5107 Q184.4904,424.4326 184.6936,424.4326 Q185.0217,424.4326 185.2717,424.6982 Q185.5373,424.9482 185.5373,425.292 Q185.5373,425.6357 185.1936,426.042 Q184.6936,426.6201 183.8967,426.9482 Q182.8186,427.4014 181.5217,427.4014 Q180.0061,427.4014 178.8029,426.7764 Q177.8186,426.2764 177.1311,425.2139 Q176.4436,424.1357 176.4436,422.8545 L176.4436,421.6982 Q176.4436,420.3701 177.0529,419.2295 Q177.6779,418.0732 178.7717,417.4639 Q179.8654,416.8389 181.0998,416.8389 Q181.8342,416.8389 182.4748,417.0107 Q183.1311,417.167 183.6779,417.5264 Z "
         fill="#000000"
         id="path14" />
      <text
         fill="#000000"
         font-family="sans-serif"
         font-size="14"
         lengthAdjust="spacing"
         textLength="56.7998"
         x="197.115"
         y="427.1509"
         id="text15">PartType</text>
      <line
         style="stroke:#181818;stroke-width:0.5;"
         x1="157"
         x2="265.8271"
         y1="437.6514"
         y2="437.6514"
         id="line15" />
      <text
         fill="#000000"
         font-family="sans-serif"
         font-size="14"
         lengthAdjust="spacing"
         textLength="30.3584"
         x="162"
         y="455.7266"
         id="text16">code</text>
      <text
         fill="#000000"
         font-family="sans-serif"
         font-size="14"
         lengthAdjust="spacing"
         textLength="35.0205"
         x="162"
         y="472.8779"
         id="text17">name</text>
      <text
         fill="#000000"
         font-family="sans-serif"
         font-size="14"
         lengthAdjust="spacing"
         textLength="47.4688"
         x="162"
         y="490.0293"
         id="text18">species</text>
      <text
         fill="#000000"
         font-family="sans-serif"
         font-size="14"
         lengthAdjust="spacing"
         textLength="98.8271"
         x="162"
         y="507.1807"
         id="text19">countPerAnimal</text>
      <line
         style="stroke:#181818;stroke-width:0.5;"
         x1="157"
         x2="265.8271"
         y1="514.2568"
         y2="514.2568"
         id="line19" />
    </g>
    <!--class Part-->
    <g
       class="entity"
       data-qualified-name="Part"
       data-source-line="33"
       id="ent0006">
      <rect
         fill="#F1F1F1"
         height="99.4541"
         rx="2.5"
         ry="2.5"
         style="stroke:#181818;stroke-width:0.5;"
         width="57.6758"
         x="182.5"
         y="608.1514"
         id="rect19" />
      <ellipse
         cx="197.5"
         cy="624.1514"
         fill="#ADD1B2"
         rx="11"
         ry="11"
         style="stroke:#181818;stroke-width:1;"
         id="ellipse19" />
      <path
         d="M200.2656,620.0264 Q200.4219,619.8076 200.6094,619.6982 Q200.7969,619.5889 201.0156,619.5889 Q201.3906,619.5889 201.625,619.8545 Q201.8594,620.1045 201.8594,620.7139 L201.8594,622.167 Q201.8594,622.7764 201.625,623.042 Q201.3906,623.3076 201.0156,623.3076 Q200.6719,623.3076 200.4688,623.1045 Q200.2656,622.917 200.1563,622.4014 Q200.1094,622.042 199.9219,621.8545 Q199.5938,621.4795 198.9844,621.2607 Q198.375,621.042 197.75,621.042 Q196.9844,621.042 196.3438,621.3701 Q195.7188,621.6982 195.2188,622.4482 Q194.7344,623.1982 194.7344,624.2295 L194.7344,625.3232 Q194.7344,626.5576 195.625,627.3857 Q196.5156,628.1982 198.1094,628.1982 Q199.0469,628.1982 199.7031,627.9482 Q200.0938,627.792 200.5156,627.3545 Q200.7813,627.0889 200.9219,627.0107 Q201.0781,626.9326 201.2813,626.9326 Q201.6094,626.9326 201.8594,627.1982 Q202.125,627.4482 202.125,627.792 Q202.125,628.1357 201.7813,628.542 Q201.2813,629.1201 200.4844,629.4482 Q199.4063,629.9014 198.1094,629.9014 Q196.5938,629.9014 195.3906,629.2764 Q194.4063,628.7764 193.7188,627.7139 Q193.0313,626.6357 193.0313,625.3545 L193.0313,624.1982 Q193.0313,622.8701 193.6406,621.7295 Q194.2656,620.5732 195.3594,619.9639 Q196.4531,619.3389 197.6875,619.3389 Q198.4219,619.3389 199.0625,619.5107 Q199.7188,619.667 200.2656,620.0264 Z "
         fill="#000000"
         id="path19" />
      <text
         fill="#000000"
         font-family="sans-serif"
         font-size="14"
         lengthAdjust="spacing"
         textLength="25.6758"
         x="211.5"
         y="629.6509"
         id="text20">Part</text>
      <line
         style="stroke:#181818;stroke-width:0.5;"
         x1="183.5"
         x2="239.1758"
         y1="640.1514"
         y2="640.1514"
         id="line20" />
      <text
         fill="#000000"
         font-family="sans-serif"
         font-size="14"
         lengthAdjust="spacing"
         textLength="35.7998"
         x="188.5"
         y="658.2266"
         id="text21">partId</text>
      <text
         fill="#000000"
         font-family="sans-serif"
         font-size="14"
         lengthAdjust="spacing"
         textLength="40.4688"
         x="188.5"
         y="675.3779"
         id="text22">weight</text>
      <text
         fill="#000000"
         font-family="sans-serif"
         font-size="14"
         lengthAdjust="spacing"
         textLength="31.9033"
         x="188.5"
         y="692.5293"
         id="text23">cutAt</text>
      <line
         style="stroke:#181818;stroke-width:0.5;"
         x1="183.5"
         x2="239.1758"
         y1="699.6055"
         y2="699.6055"
         id="line23" />
    </g>
    <!--class Tray-->
    <g
       class="entity"
       data-qualified-name="Tray"
       data-source-line="40"
       id="ent0007">
      <rect
         fill="#F1F1F1"
         height="133.7568"
         rx="2.5"
         ry="2.5"
         style="stroke:#181818;stroke-width:0.5;"
         width="82.0205"
         x="312.5"
         y="397.1514"
         id="rect23" />
      <ellipse
         cx="337.4092"
         cy="413.1514"
         fill="#ADD1B2"
         rx="11"
         ry="11"
         style="stroke:#181818;stroke-width:1;"
         id="ellipse23" />
      <path
         d="M340.1749,409.0264 Q340.3311,408.8076 340.5186,408.6982 Q340.7061,408.5889 340.9249,408.5889 Q341.2999,408.5889 341.5342,408.8545 Q341.7686,409.1045 341.7686,409.7139 L341.7686,411.167 Q341.7686,411.7764 341.5342,412.042 Q341.2999,412.3076 340.9249,412.3076 Q340.5811,412.3076 340.378,412.1045 Q340.1749,411.917 340.0655,411.4014 Q340.0186,411.042 339.8311,410.8545 Q339.503,410.4795 338.8936,410.2607 Q338.2842,410.042 337.6592,410.042 Q336.8936,410.042 336.253,410.3701 Q335.628,410.6982 335.128,411.4482 Q334.6436,412.1982 334.6436,413.2295 L334.6436,414.3232 Q334.6436,415.5576 335.5342,416.3857 Q336.4249,417.1982 338.0186,417.1982 Q338.9561,417.1982 339.6124,416.9482 Q340.003,416.792 340.4249,416.3545 Q340.6905,416.0889 340.8311,416.0107 Q340.9874,415.9326 341.1905,415.9326 Q341.5186,415.9326 341.7686,416.1982 Q342.0342,416.4482 342.0342,416.792 Q342.0342,417.1357 341.6905,417.542 Q341.1905,418.1201 340.3936,418.4482 Q339.3155,418.9014 338.0186,418.9014 Q336.503,418.9014 335.2999,418.2764 Q334.3155,417.7764 333.628,416.7139 Q332.9405,415.6357 332.9405,414.3545 L332.9405,413.1982 Q332.9405,411.8701 333.5499,410.7295 Q334.1749,409.5732 335.2686,408.9639 Q336.3624,408.3389 337.5967,408.3389 Q338.3311,408.3389 338.9717,408.5107 Q339.628,408.667 340.1749,409.0264 Z "
         fill="#000000"
         id="path23" />
      <text
         fill="#000000"
         font-family="sans-serif"
         font-size="14"
         lengthAdjust="spacing"
         textLength="28"
         x="353.6113"
         y="418.6509"
         id="text24">Tray</text>
      <line
         style="stroke:#181818;stroke-width:0.5;"
         x1="313.5"
         x2="393.5205"
         y1="429.1514"
         y2="429.1514"
         id="line24" />
      <text
         fill="#000000"
         font-family="sans-serif"
         font-size="14"
         lengthAdjust="spacing"
         textLength="35.0137"
         x="318.5"
         y="447.2266"
         id="text25">trayId</text>
      <text
         fill="#000000"
         font-family="sans-serif"
         font-size="14"
         lengthAdjust="spacing"
         textLength="70.0205"
         x="318.5"
         y="464.3779"
         id="text26">maxWeight</text>
      <text
         fill="#000000"
         font-family="sans-serif"
         font-size="14"
         lengthAdjust="spacing"
         textLength="63.0342"
         x="318.5"
         y="481.5293"
         id="text27">netWeight</text>
      <text
         fill="#000000"
         font-family="sans-serif"
         font-size="14"
         lengthAdjust="spacing"
         textLength="59.9443"
         x="318.5"
         y="498.6807"
         id="text28">openedAt</text>
      <text
         fill="#000000"
         font-family="sans-serif"
         font-size="14"
         lengthAdjust="spacing"
         textLength="53.6963"
         x="318.5"
         y="515.832"
         id="text29">closedAt</text>
      <line
         style="stroke:#181818;stroke-width:0.5;"
         x1="313.5"
         x2="393.5205"
         y1="522.9082"
         y2="522.9082"
         id="line29" />
    </g>
    <!--class ProductType-->
    <g
       class="entity"
       data-qualified-name="ProductType"
       data-source-line="49"
       id="ent0008">
      <rect
         fill="#F1F1F1"
         height="99.4541"
         rx="2.5"
         ry="2.5"
         style="stroke:#181818;stroke-width:0.5;"
         width="111.3721"
         x="209"
         y="45.1514"
         id="rect29" />
      <ellipse
         cx="224"
         cy="61.1514"
         fill="#ADD1B2"
         rx="11"
         ry="11"
         style="stroke:#181818;stroke-width:1;"
         id="ellipse29" />
      <path
         d="M226.7656,57.0264 Q226.9219,56.8076 227.1094,56.6982 Q227.2969,56.5889 227.5156,56.5889 Q227.8906,56.5889 228.125,56.8545 Q228.3594,57.1045 228.3594,57.7139 L228.3594,59.167 Q228.3594,59.7764 228.125,60.042 Q227.8906,60.3076 227.5156,60.3076 Q227.1719,60.3076 226.9688,60.1045 Q226.7656,59.917 226.6563,59.4014 Q226.6094,59.042 226.4219,58.8545 Q226.0938,58.4795 225.4844,58.2607 Q224.875,58.042 224.25,58.042 Q223.4844,58.042 222.8438,58.3701 Q222.2188,58.6982 221.7188,59.4482 Q221.2344,60.1982 221.2344,61.2295 L221.2344,62.3232 Q221.2344,63.5576 222.125,64.3857 Q223.0156,65.1982 224.6094,65.1982 Q225.5469,65.1982 226.2031,64.9482 Q226.5938,64.792 227.0156,64.3545 Q227.2813,64.0889 227.4219,64.0107 Q227.5781,63.9326 227.7813,63.9326 Q228.1094,63.9326 228.3594,64.1982 Q228.625,64.4482 228.625,64.792 Q228.625,65.1357 228.2813,65.542 Q227.7813,66.1201 226.9844,66.4482 Q225.9063,66.9014 224.6094,66.9014 Q223.0938,66.9014 221.8906,66.2764 Q220.9063,65.7764 220.2188,64.7139 Q219.5313,63.6357 219.5313,62.3545 L219.5313,61.1982 Q219.5313,59.8701 220.1406,58.7295 Q220.7656,57.5732 221.8594,56.9639 Q222.9531,56.3389 224.1875,56.3389 Q224.9219,56.3389 225.5625,56.5107 Q226.2188,56.667 226.7656,57.0264 Z "
         fill="#000000"
         id="path29" />
      <text
         fill="#000000"
         font-family="sans-serif"
         font-size="14"
         lengthAdjust="spacing"
         textLength="79.3721"
         x="238"
         y="66.6509"
         id="text30">ProductType</text>
      <line
         style="stroke:#181818;stroke-width:0.5;"
         x1="210"
         x2="319.3721"
         y1="77.1514"
         y2="77.1514"
         id="line30" />
      <text
         fill="#000000"
         font-family="sans-serif"
         font-size="14"
         lengthAdjust="spacing"
         textLength="30.3584"
         x="215"
         y="95.2266"
         id="text31">code</text>
      <text
         fill="#000000"
         font-family="sans-serif"
         font-size="14"
         lengthAdjust="spacing"
         textLength="35.0205"
         x="215"
         y="112.3779"
         id="text32">name</text>
      <text
         fill="#000000"
         font-family="sans-serif"
         font-size="14"
         lengthAdjust="spacing"
         textLength="25.6826"
         x="215"
         y="129.5293"
         id="text33">kind</text>
      <line
         style="stroke:#181818;stroke-width:0.5;"
         x1="210"
         x2="319.3721"
         y1="136.6055"
         y2="136.6055"
         id="line33" />
    </g>
    <!--class ProductComponent-->
    <g
       class="entity"
       data-qualified-name="ProductComponent"
       data-source-line="56"
       id="ent0009">
      <rect
         fill="#F1F1F1"
         height="65.1514"
         rx="2.5"
         ry="2.5"
         style="stroke:#181818;stroke-width:0.5;"
         width="152.627"
         x="135"
         y="238.1514"
         id="rect33" />
      <ellipse
         cx="150"
         cy="254.1514"
         fill="#ADD1B2"
         rx="11"
         ry="11"
         style="stroke:#181818;stroke-width:1;"
         id="ellipse33" />
      <path
         d="M152.7656,250.0264 Q152.9219,249.8076 153.1094,249.6982 Q153.2969,249.5889 153.5156,249.5889 Q153.8906,249.5889 154.125,249.8545 Q154.3594,250.1045 154.3594,250.7139 L154.3594,252.167 Q154.3594,252.7764 154.125,253.042 Q153.8906,253.3076 153.5156,253.3076 Q153.1719,253.3076 152.9688,253.1045 Q152.7656,252.917 152.6563,252.4014 Q152.6094,252.042 152.4219,251.8545 Q152.0938,251.4795 151.4844,251.2607 Q150.875,251.042 150.25,251.042 Q149.4844,251.042 148.8438,251.3701 Q148.2188,251.6982 147.7188,252.4482 Q147.2344,253.1982 147.2344,254.2295 L147.2344,255.3232 Q147.2344,256.5576 148.125,257.3857 Q149.0156,258.1982 150.6094,258.1982 Q151.5469,258.1982 152.2031,257.9482 Q152.5938,257.792 153.0156,257.3545 Q153.2813,257.0889 153.4219,257.0107 Q153.5781,256.9326 153.7813,256.9326 Q154.1094,256.9326 154.3594,257.1982 Q154.625,257.4482 154.625,257.792 Q154.625,258.1357 154.2813,258.542 Q153.7813,259.1201 152.9844,259.4482 Q151.9063,259.9014 150.6094,259.9014 Q149.0938,259.9014 147.8906,259.2764 Q146.9063,258.7764 146.2188,257.7139 Q145.5313,256.6357 145.5313,255.3545 L145.5313,254.1982 Q145.5313,252.8701 146.1406,251.7295 Q146.7656,250.5732 147.8594,249.9639 Q148.9531,249.3389 150.1875,249.3389 Q150.9219,249.3389 151.5625,249.5107 Q152.2188,249.667 152.7656,250.0264 Z "
         fill="#000000"
         id="path33" />
      <text
         fill="#000000"
         font-family="sans-serif"
         font-size="14"
         lengthAdjust="spacing"
         textLength="120.627"
         x="164"
         y="259.6509"
         id="text34">ProductComponent</text>
      <line
         style="stroke:#181818;stroke-width:0.5;"
         x1="136"
         x2="286.627"
         y1="270.1514"
         y2="270.1514"
         id="line34" />
      <text
         fill="#000000"
         font-family="sans-serif"
         font-size="14"
         lengthAdjust="spacing"
         textLength="49.0342"
         x="141"
         y="288.2266"
         id="text35">quantity</text>
      <line
         style="stroke:#181818;stroke-width:0.5;"
         x1="136"
         x2="286.627"
         y1="295.3027"
         y2="295.3027"
         id="line35" />
    </g>
    <!--class Product-->
    <g
       class="entity"
       data-qualified-name="Product"
       data-source-line="61"
       id="ent0010">
      <rect
         fill="#F1F1F1"
         height="99.4541"
         rx="2.5"
         ry="2.5"
         style="stroke:#181818;stroke-width:0.5;"
         width="82.0342"
         x="323.5"
         y="221.1514"
         id="rect35" />
      <ellipse
         cx="339.3038"
         cy="237.1514"
         fill="#ADD1B2"
         rx="11"
         ry="11"
         style="stroke:#181818;stroke-width:1;"
         id="ellipse35" />
      <path
         d="M342.0694,233.0264 Q342.2256,232.8076 342.4131,232.6982 Q342.6006,232.5889 342.8194,232.5889 Q343.1944,232.5889 343.4288,232.8545 Q343.6631,233.1045 343.6631,233.7139 L343.6631,235.167 Q343.6631,235.7764 343.4288,236.042 Q343.1944,236.3076 342.8194,236.3076 Q342.4756,236.3076 342.2725,236.1045 Q342.0694,235.917 341.96,235.4014 Q341.9131,235.042 341.7256,234.8545 Q341.3975,234.4795 340.7881,234.2607 Q340.1788,234.042 339.5538,234.042 Q338.7881,234.042 338.1475,234.3701 Q337.5225,234.6982 337.0225,235.4482 Q336.5381,236.1982 336.5381,237.2295 L336.5381,238.3232 Q336.5381,239.5576 337.4288,240.3857 Q338.3194,241.1982 339.9131,241.1982 Q340.8506,241.1982 341.5069,240.9482 Q341.8975,240.792 342.3194,240.3545 Q342.585,240.0889 342.7256,240.0107 Q342.8819,239.9326 343.085,239.9326 Q343.4131,239.9326 343.6631,240.1982 Q343.9288,240.4482 343.9288,240.792 Q343.9288,241.1357 343.585,241.542 Q343.085,242.1201 342.2881,242.4482 Q341.21,242.9014 339.9131,242.9014 Q338.3975,242.9014 337.1944,242.2764 Q336.21,241.7764 335.5225,240.7139 Q334.835,239.6357 334.835,238.3545 L334.835,237.1982 Q334.835,235.8701 335.4444,234.7295 Q336.0694,233.5732 337.1631,232.9639 Q338.2569,232.3389 339.4913,232.3389 Q340.2256,232.3389 340.8663,232.5107 Q341.5225,232.667 342.0694,233.0264 Z "
         fill="#000000"
         id="path35" />
      <text
         fill="#000000"
         font-family="sans-serif"
         font-size="14"
         lengthAdjust="spacing"
         textLength="48.248"
         x="353.4824"
         y="242.6509"
         id="text36">Product</text>
      <line
         style="stroke:#181818;stroke-width:0.5;"
         x1="324.5"
         x2="404.5342"
         y1="253.1514"
         y2="253.1514"
         id="line36" />
      <text
         fill="#000000"
         font-family="sans-serif"
         font-size="14"
         lengthAdjust="spacing"
         textLength="58.3721"
         x="329.5"
         y="271.2266"
         id="text37">productId</text>
      <text
         fill="#000000"
         font-family="sans-serif"
         font-size="14"
         lengthAdjust="spacing"
         textLength="58.3721"
         x="329.5"
         y="288.3779"
         id="text38">packedAt</text>
      <text
         fill="#000000"
         font-family="sans-serif"
         font-size="14"
         lengthAdjust="spacing"
         textLength="70.0342"
         x="329.5"
         y="305.5293"
         id="text39">totalWeight</text>
      <line
         style="stroke:#181818;stroke-width:0.5;"
         x1="324.5"
         x2="404.5342"
         y1="312.6055"
         y2="312.6055"
         id="line39" />
    </g>
    <!--link Farm to Delivery-->
    <g
       class="link"
       data-entity-1="ent0002"
       data-entity-2="ent0003"
       data-link-type="association"
       data-source-line="68"
       id="lnk11">
      <path
         codeLine="68"
         d="M53.5,144.5814 C53.5,168.5014 53.5,197.2114 53.5,221.0914"
         fill="none"
         id="Farm-Delivery"
         style="stroke:#181818;stroke-width:1;" />
      <polygon
         fill="#000000"
         points="58.5,188.1145,61.4389,179.0694,55.5611,179.0694,58.5,188.1145"
         style="stroke:#000000;stroke-width:1;"
         id="polygon39" />
      <text
         fill="#000000"
         font-family="sans-serif"
         font-size="13"
         lengthAdjust="spacing"
         textLength="34.6899"
         x="67.5"
         y="188.2212"
         id="text40">sends</text>
      <text
         fill="#000000"
         font-family="sans-serif"
         font-size="13"
         lengthAdjust="spacing"
         textLength="7.23"
         x="46.0477"
         y="165.7605"
         id="text41">1</text>
      <text
         fill="#000000"
         font-family="sans-serif"
         font-size="13"
         lengthAdjust="spacing"
         textLength="19.5127"
         x="33.0899"
         y="210.46"
         id="text42">0..*</text>
    </g>
    <!--link Delivery to Animal-->
    <g
       class="link"
       data-entity-1="ent0003"
       data-entity-2="ent0004"
       data-link-type="association"
       data-source-line="70"
       id="lnk12">
      <path
         codeLine="70"
         d="M58.09,320.4714 C60.53,346.4014 63.54,378.4314 66.09,405.5714"
         fill="none"
         id="Delivery-Animal"
         style="stroke:#181818;stroke-width:1;" />
      <polygon
         fill="#000000"
         points="67.968,364.0926,70.0474,354.8121,64.1954,355.3622,67.968,364.0926"
         style="stroke:#000000;stroke-width:1;"
         id="polygon42" />
      <text
         fill="#000000"
         font-family="sans-serif"
         font-size="13"
         lengthAdjust="spacing"
         textLength="48.4199"
         x="76.5"
         y="364.2212"
         id="text43">contains</text>
      <text
         fill="#000000"
         font-family="sans-serif"
         font-size="13"
         lengthAdjust="spacing"
         textLength="7.23"
         x="51.2643"
         y="341.635"
         id="text44">1</text>
      <text
         fill="#000000"
         font-family="sans-serif"
         font-size="13"
         lengthAdjust="spacing"
         textLength="19.5127"
         x="45.0885"
         y="394.8504"
         id="text45">1..*</text>
    </g>
    <!--link Animal to Part-->
    <g
       class="link"
       data-entity-1="ent0004"
       data-entity-2="ent0006"
       data-link-type="association"
       data-source-line="72"
       id="lnk13">
      <path
         codeLine="72"
         d="M113.69,522.8714 C135.92,553.2614 162.6,589.7614 182.48,616.9514"
         fill="none"
         id="Animal-Part"
         style="stroke:#181818;stroke-width:1;" />
      <polygon
         fill="#000000"
         points="162.4512,574.1507,159.4848,565.1145,154.7401,568.5838,162.4512,574.1507"
         style="stroke:#000000;stroke-width:1;"
         id="polygon45" />
      <text
         fill="#000000"
         font-family="sans-serif"
         font-size="13"
         lengthAdjust="spacing"
         textLength="33.2363"
         x="168.5"
         y="575.2212"
         id="text46">yields</text>
      <text
         fill="#000000"
         font-family="sans-serif"
         font-size="13"
         lengthAdjust="spacing"
         textLength="7.23"
         x="110.9079"
         y="543.2562"
         id="text47">1</text>
      <text
         fill="#000000"
         font-family="sans-serif"
         font-size="13"
         lengthAdjust="spacing"
         textLength="19.5127"
         x="155.1453"
         y="604.5291"
         id="text48">0..*</text>
    </g>
    <!--link PartType to Part-->
    <g
       class="link"
       data-entity-1="ent0005"
       data-entity-2="ent0006"
       data-link-type="association"
       data-source-line="74"
       id="lnk14">
      <path
         codeLine="74"
         d="M211.5,522.8714 C211.5,550.0714 211.5,582.1614 211.5,608.0914"
         fill="none"
         id="PartType-Part"
         style="stroke:#181818;stroke-width:1;" />
      <polygon
         fill="#000000"
         points="216.5,575.1145,219.4389,566.0694,213.5611,566.0694,216.5,575.1145"
         style="stroke:#000000;stroke-width:1;"
         id="polygon48" />
      <text
         fill="#000000"
         font-family="sans-serif"
         font-size="13"
         lengthAdjust="spacing"
         textLength="52.7363"
         x="225.5"
         y="575.2212"
         id="text49">classifies</text>
      <text
         fill="#000000"
         font-family="sans-serif"
         font-size="13"
         lengthAdjust="spacing"
         textLength="7.23"
         x="204.1392"
         y="543.2562"
         id="text50">1</text>
      <text
         fill="#000000"
         font-family="sans-serif"
         font-size="13"
         lengthAdjust="spacing"
         textLength="19.5127"
         x="191.1094"
         y="597.46"
         id="text51">0..*</text>
    </g>
    <!--link Tray to Part-->
    <g
       class="link"
       data-entity-1="ent0007"
       data-entity-2="ent0006"
       data-link-type="association"
       data-source-line="76"
       id="lnk15">
      <path
         codeLine="76"
         d="M317.67,531.3314 C308.2,547.1314 297.53,563.6114 286.5,578.1514 C272.72,596.3214 255.21,614.8514 240.57,629.3414"
         fill="none"
         id="Tray-Part"
         style="stroke:#181818;stroke-width:1;" />
      <polygon
         fill="#000000"
         points="299.4086,574.0443,307.3109,568.7523,302.6911,565.1182,299.4086,574.0443"
         style="stroke:#000000;stroke-width:1;"
         id="polygon51" />
      <text
         fill="#000000"
         font-family="sans-serif"
         font-size="13"
         lengthAdjust="spacing"
         textLength="31.0781"
         x="311.5"
         y="575.2212"
         id="text52">holds</text>
      <text
         fill="#000000"
         font-family="sans-serif"
         font-size="13"
         lengthAdjust="spacing"
         textLength="21.6836"
         x="291.9264"
         y="552.1629"
         id="text53">0..1</text>
      <text
         fill="#000000"
         font-family="sans-serif"
         font-size="13"
         lengthAdjust="spacing"
         textLength="19.5127"
         x="248.2459"
         y="620.4076"
         id="text54">0..*</text>
    </g>
    <!--link Product to Tray-->
    <g
       class="link"
       data-entity-1="ent0010"
       data-entity-2="ent0007"
       data-link-type="association"
       data-source-line="78"
       id="lnk16">
      <path
         codeLine="78"
         d="M361.7,320.4714 C360.36,343.7414 358.74,371.9214 357.3,397.0814"
         fill="none"
         id="Product-Tray"
         style="stroke:#181818;stroke-width:1;" />
      <polygon
         fill="#000000"
         points="365.2133,364.1063,368.666,355.2446,362.7979,354.9076,365.2133,364.1063"
         style="stroke:#000000;stroke-width:1;"
         id="polygon54" />
      <text
         fill="#000000"
         font-family="sans-serif"
         font-size="13"
         lengthAdjust="spacing"
         textLength="65.7363"
         x="374.5"
         y="364.2212"
         id="text55">drawnFrom</text>
      <text
         fill="#000000"
         font-family="sans-serif"
         font-size="13"
         lengthAdjust="spacing"
         textLength="19.5127"
         x="341.004"
         y="341.635"
         id="text56">0..*</text>
      <text
         fill="#000000"
         font-family="sans-serif"
         font-size="13"
         lengthAdjust="spacing"
         textLength="19.5127"
         x="337.6353"
         y="386.1342"
         id="text57">1..*</text>
    </g>
    <!--link ProductType to Product-->
    <g
       class="link"
       data-entity-1="ent0008"
       data-entity-2="ent0010"
       data-link-type="association"
       data-source-line="80"
       id="lnk17">
      <path
         codeLine="80"
         d="M292.62,144.5814 C306.37,168.5014 322.87,197.2114 336.59,221.0914"
         fill="none"
         id="ProductType-Product"
         style="stroke:#181818;stroke-width:1;" />
      <polygon
         fill="#000000"
         points="324.9914,187.4496,323.0326,178.1429,317.9363,181.0717,324.9914,187.4496"
         style="stroke:#000000;stroke-width:1;"
         id="polygon57" />
      <text
         fill="#000000"
         font-family="sans-serif"
         font-size="13"
         lengthAdjust="spacing"
         textLength="60.6963"
         x="331.5"
         y="188.2212"
         id="text58">realisedBy</text>
      <text
         fill="#000000"
         font-family="sans-serif"
         font-size="13"
         lengthAdjust="spacing"
         textLength="7.23"
         x="289.0722"
         y="165.7605"
         id="text59">1</text>
      <text
         fill="#000000"
         font-family="sans-serif"
         font-size="13"
         lengthAdjust="spacing"
         textLength="19.5127"
         x="311.8982"
         y="210.46"
         id="text60">0..*</text>
    </g>
    <!--link ProductType to ProductComponent-->
    <g
       class="link"
       data-entity-1="ent0008"
       data-entity-2="ent0009"
       data-link-type="association"
       data-source-line="82"
       id="lnk18">
      <path
         codeLine="82"
         d="M249.6,144.5814 C240.47,174.5414 229.06,211.9914 221.12,238.0714"
         fill="none"
         id="ProductType-ProductComponent"
         style="stroke:#181818;stroke-width:1;" />
      <text
         fill="#000000"
         font-family="sans-serif"
         font-size="13"
         lengthAdjust="spacing"
         textLength="7.23"
         x="240.0025"
         y="165.7605"
         id="text61">1</text>
      <text
         fill="#000000"
         font-family="sans-serif"
         font-size="13"
         lengthAdjust="spacing"
         textLength="19.5127"
         x="202.2431"
         y="227.4584"
         id="text62">1..*</text>
    </g>
    <!--link ProductComponent to PartType-->
    <g
       class="link"
       data-entity-1="ent0009"
       data-entity-2="ent0005"
       data-link-type="association"
       data-source-line="84"
       id="lnk19">
      <path
         codeLine="84"
         d="M211.5,303.2714 C211.5,331.0014 211.5,372.0014 211.5,405.5414"
         fill="none"
         id="ProductComponent-PartType"
         style="stroke:#181818;stroke-width:1;" />
      <polygon
         fill="#000000"
         points="216.5,364.1145,219.4389,355.0694,213.5611,355.0694,216.5,364.1145"
         style="stroke:#000000;stroke-width:1;"
         id="polygon62" />
      <text
         fill="#000000"
         font-family="sans-serif"
         font-size="13"
         lengthAdjust="spacing"
         textLength="10.8418"
         x="225.5"
         y="364.2212"
         id="text63">of</text>
      <text
         fill="#000000"
         font-family="sans-serif"
         font-size="13"
         lengthAdjust="spacing"
         textLength="19.5127"
         x="190.7169"
         y="324.3161"
         id="text64">0..*</text>
      <text
         fill="#000000"
         font-family="sans-serif"
         font-size="13"
         lengthAdjust="spacing"
         textLength="7.23"
         x="204.0568"
         y="394.8164"
         id="text65">1</text>
    </g>
<?plantuml-src TLBBJiCm4BpxAwmSaLhHQmz8XGh10Qc2IfnNzhQrwjZ1TYWHuj_PhFFeyvInCpCxk-jaaaNvOQ7UxXA65rz7b1Evz2KO9z-yHYk4iX2ZV8PGYbyXvOR0goRWe4JwWDO1OnH_FNE9rdnZQ9YjkmCh80Gww4KYd0AuMFcGtd4xQXVEb61P2GnP5ojK1YEXrkmJ3QMbGy2jYHIR7GUB5OIqRYfa4qKjZ5577-LhbrOOkdedOXPM1BZseQ-cwdHSPXqWTqYDvEvA-1cYEKm3zXMwhcbbVJnB6xokrQt0U-Fq1VV9bvLtw7BGhnfSCgcveEKsCkPy5QXzFtoVm7O1ITVkLXQpGaucihYVJk-AOOboBYCw7UM34CDTJvqnDS-GYCgxHE-6kTtbgMaxNU8r1crsx7TrdSVjc0rjhEMs0sV2DUhEzuwvuVxtc9BbSwa37DnpyEKH-Lg2pcPEZmoieQKzDhSKisF5k1nnVdEIgHZUATNmczRx7m00?>  </g>
  <metadata
     id="metadata65">
    <rdf:RDF>
      <cc:Work
         rdf:about="">
        <dc:title>SlaughterHouse - Domain Model</dc:title>
      </cc:Work>
    </rdf:RDF>
  </metadata>
</svg>
